<svg width="64" height="64" viewBox="0 0 64 64" fill="none" xmlns="http://www.w3.org/2000/svg">
<path d="M20.8091 29.5682C20.7937 30.0817 20.8617 30.5942 21.0103 31.0859C21.1572 31.5095 21.3407 31.9194 21.5588 32.3111C21.6368 32.4245 21.6811 32.5576 21.6868 32.6951C21.6772 32.8006 21.6423 32.9023 21.585 32.9914C21.5277 33.0805 21.4497 33.1545 21.3577 33.2071L20.2788 33.9202C20.1505 34.0119 19.9976 34.0628 19.84 34.0665C19.7428 34.0649 19.6469 34.0429 19.5588 34.002C19.4706 33.961 19.3919 33.902 19.328 33.8288C19.0911 33.5915 18.8825 33.3277 18.7063 33.0425C18.5417 32.7499 18.3771 32.4208 18.1943 32.0368C17.5945 32.7862 16.8311 33.3884 15.9627 33.7972C15.0942 34.2061 14.1437 34.4108 13.184 34.3956C12.564 34.4291 11.9435 34.338 11.3593 34.1276C10.7751 33.9171 10.2391 33.5917 9.78284 33.1705C9.35837 32.7421 9.02842 32.2295 8.81425 31.6657C8.60008 31.1019 8.50645 30.4995 8.53941 29.8974C8.51724 29.2346 8.64369 28.5753 8.90947 27.9678C9.17526 27.3603 9.57364 26.82 10.0754 26.3865C11.2671 25.4576 12.754 24.9901 14.2628 25.0699C14.8747 25.0672 15.4859 25.11 16.0914 25.1979C16.7314 25.2894 17.3714 25.4173 18.048 25.5636V24.3202C18.1457 23.3418 17.8569 22.364 17.2434 21.5956C16.4528 20.9853 15.4572 20.7036 14.464 20.8094C13.8481 20.8123 13.2345 20.8859 12.6354 21.0288C12.0118 21.1768 11.4005 21.3724 10.8068 21.6139L10.2034 21.8333H9.94741C9.69141 21.8333 9.58169 21.6505 9.58169 21.3031V20.4619C9.56548 20.2606 9.60336 20.0586 9.69141 19.8768C9.82746 19.7205 9.99594 19.5957 10.1851 19.5111C10.8698 19.1817 11.5867 18.9243 12.3245 18.7431C13.1906 18.5201 14.0817 18.4094 14.976 18.4139C16.588 18.2734 18.1906 18.7726 19.4377 19.8036C19.9498 20.3659 20.3395 21.0285 20.5819 21.7493C20.8242 22.4702 20.9141 23.2336 20.8457 23.9911L20.8091 29.5682ZM13.8971 32.1648C14.5199 32.1657 15.1382 32.0606 15.7257 31.8539C16.3514 31.6404 16.9075 31.2612 17.3348 30.7568C17.617 30.4517 17.8181 30.0808 17.92 29.6779C18.0381 29.1933 18.0934 28.6955 18.0846 28.1968V27.4288C17.5473 27.3171 17.0039 27.2378 16.4571 27.1911C15.9086 27.1911 15.3783 27.1911 14.848 27.1911C13.954 27.1193 13.0627 27.3583 12.3245 27.8676C12.0393 28.1078 11.8145 28.4117 11.6684 28.7547C11.5223 29.0978 11.4589 29.4704 11.4834 29.8425C11.4533 30.1738 11.4931 30.5078 11.6002 30.8228C11.7073 31.1378 11.8793 31.4267 12.1051 31.6711C12.6135 32.0664 13.258 32.244 13.8971 32.1648ZM27.5931 33.9934C27.3614 34.0149 27.1292 33.9569 26.9348 33.8288C26.7492 33.644 26.622 33.4087 26.5691 33.1522L22.5828 19.9865C22.5018 19.7629 22.4526 19.529 22.4366 19.2916C22.4366 19.0174 22.5645 18.8711 22.8388 18.8711H24.5211C24.7529 18.8495 24.9851 18.9076 25.1794 19.0356C25.3575 19.2233 25.4781 19.4581 25.5268 19.7122L28.3977 31.0859L31.0857 19.7305C31.1137 19.4737 31.2301 19.2345 31.4148 19.0539C31.616 18.9258 31.8539 18.8679 32.0914 18.8893H33.4628C33.7061 18.8679 33.9498 18.9256 34.1577 19.0539C34.3292 19.2438 34.4433 19.4784 34.4868 19.7305L37.1383 31.0859L40.0823 19.6756C40.131 19.4215 40.2516 19.1867 40.4297 18.9991C40.624 18.871 40.8562 18.8129 41.088 18.8345H42.6788C42.7355 18.8288 42.7927 18.8357 42.8463 18.8549C42.8999 18.874 42.9486 18.9048 42.9889 18.945C43.0291 18.9853 43.0599 19.034 43.079 19.0876C43.0982 19.1412 43.1051 19.1984 43.0994 19.2551C43.1063 19.3464 43.1063 19.4381 43.0994 19.5294C43.0994 19.5294 43.0994 19.7671 42.9897 19.9499L38.8571 33.1156C38.8084 33.3697 38.6878 33.6045 38.5097 33.7922C38.3132 33.9152 38.0827 33.9729 37.8514 33.9568H36.3885C36.1481 33.9824 35.9068 33.9171 35.712 33.7739C35.5308 33.5908 35.4151 33.353 35.3828 33.0974L32.7314 22.1259L30.0983 33.0974C30.066 33.353 29.9503 33.5908 29.7691 33.7739C29.5728 33.914 29.3327 33.9789 29.0925 33.9568L27.5931 33.9934ZM49.536 34.4322C48.6499 34.4364 47.7663 34.3383 46.9028 34.1396C46.2232 34.0032 45.565 33.7757 44.9463 33.4631C44.7275 33.3588 44.5434 33.1937 44.416 32.9876C44.3449 32.8327 44.3076 32.6644 44.3063 32.4939V31.6345C44.3063 31.2871 44.4343 31.1042 44.6903 31.1042C44.7993 31.0868 44.9104 31.0868 45.0194 31.1042L45.44 31.2871C46.0261 31.5489 46.6393 31.7452 47.2685 31.8722C47.9354 32.0174 48.6158 32.091 49.2983 32.0916C50.1645 32.1455 51.0278 31.9487 51.7851 31.5248C52.0601 31.3575 52.286 31.1207 52.4402 30.8381C52.5943 30.5556 52.6711 30.2374 52.6628 29.9156C52.6715 29.6968 52.6354 29.4786 52.5568 29.2742C52.4782 29.0698 52.3587 28.8837 52.2057 28.7271C51.7107 28.2981 51.122 27.9912 50.4868 27.8311L48.0183 27.0448C46.9503 26.7763 45.9959 26.1742 45.2937 25.3259C44.7415 24.614 44.4394 23.74 44.4343 22.8391C44.4243 22.2001 44.5819 21.5696 44.8914 21.0105C45.1973 20.461 45.6146 19.9814 46.1165 19.6025C46.6662 19.1988 47.2863 18.9011 47.9451 18.7248C48.6463 18.5228 49.3732 18.4242 50.1028 18.4322C50.4803 18.4055 50.8591 18.4055 51.2365 18.4322L52.352 18.6151L53.3211 18.8893L54.0343 19.1819C54.2256 19.2949 54.3983 19.4368 54.5463 19.6025C54.6482 19.7736 54.6989 19.9703 54.6925 20.1693V20.9739C54.6925 21.3396 54.5645 21.5225 54.3085 21.5225C54.0763 21.4959 53.8521 21.4212 53.6503 21.3031C52.6124 20.852 51.4903 20.6276 50.3588 20.6448C49.5748 20.6068 48.7941 20.7704 48.0914 21.1202C47.8305 21.2791 47.6177 21.506 47.476 21.7766C47.3342 22.0472 47.2688 22.3513 47.2868 22.6562C47.286 22.8816 47.331 23.1047 47.419 23.3122C47.507 23.5196 47.6362 23.7071 47.7988 23.8631C48.3386 24.295 48.9608 24.6124 49.6274 24.7956L52.0411 25.5636C53.0643 25.8351 53.9819 26.4086 54.6743 27.2094C55.1985 27.8966 55.4755 28.7406 55.4605 29.6048C55.4714 30.2884 55.3211 30.965 55.0217 31.5796C54.728 32.1684 54.3025 32.6815 53.7783 33.0791C53.2357 33.5152 52.6152 33.8441 51.9497 34.0482C51.1515 34.3048 50.3195 34.4404 49.4811 34.4505L49.536 34.4322Z" fill="#232F3E"/>
<path fill-rule="evenodd" clip-rule="evenodd" d="M52.6994 42.8436C46.5792 47.0026 39.3447 49.2144 31.9451 49.1887C22.5895 49.2393 13.5518 45.7964 6.60111 39.5339C6.07082 39.0585 6.60111 38.4002 7.18625 38.7659C14.9007 43.1859 23.6393 45.5061 32.5303 45.495C39.1765 45.468 45.7516 44.1256 51.8765 41.5453C52.8274 41.143 53.632 42.167 52.6994 42.8436Z" fill="#232F3E"/>
<path fill-rule="evenodd" clip-rule="evenodd" d="M55.0399 40.2287C54.3085 39.2961 50.2856 39.7898 48.4753 40.0093C47.9268 40.0093 47.8536 39.5887 48.3473 39.2413C51.5473 36.9921 56.8136 37.6321 57.4902 38.4001C58.1668 39.1681 57.3256 44.4344 54.3085 46.9578C53.8513 47.3418 53.4125 47.1224 53.6136 46.6287C54.2353 44.8915 55.753 41.1064 55.0399 40.2287Z" fill="#232F3E"/>
</svg>
