<svg width="32" height="32" viewBox="0 0 32 32" fill="none" xmlns="http://www.w3.org/2000/svg">
<path d="M20 5C17.9571 5.00157 15.9549 5.57142 14.2174 6.64582C12.4798 7.72023 11.0754 9.25682 10.1612 11.0837C9.07369 10.9251 7.96513 10.9923 6.90469 11.2811C5.84425 11.5699 4.85469 12.0741 3.99773 12.7622C3.14077 13.4504 2.43479 14.3077 1.92383 15.2808C1.41287 16.2538 1.1079 17.3217 1.02792 18.4179C0.947948 19.514 1.09469 20.6149 1.459 21.6518C1.82331 22.6887 2.39737 23.6395 3.14537 24.4447C3.89337 25.2499 4.79928 25.8924 5.80657 26.3321C6.81386 26.7717 7.90094 26.9991 9 27H20C22.9174 27 25.7153 25.8411 27.7782 23.7782C29.8411 21.7153 31 18.9174 31 16C31 13.0826 29.8411 10.2847 27.7782 8.22183C25.7153 6.15893 22.9174 5 20 5ZM20 25H9C7.4087 25 5.88257 24.3679 4.75735 23.2426C3.63214 22.1174 3 20.5913 3 19C3 17.4087 3.63214 15.8826 4.75735 14.7574C5.88257 13.6321 7.4087 13 9 13C9.1375 13 9.275 13 9.41125 13.0138C9.13777 13.9856 8.99939 14.9904 9 16C9 16.2652 9.10535 16.5196 9.29289 16.7071C9.48042 16.8946 9.73478 17 10 17C10.2652 17 10.5196 16.8946 10.7071 16.7071C10.8946 16.5196 11 16.2652 11 16C11 14.22 11.5278 12.4799 12.5168 10.9999C13.5057 9.51982 14.9113 8.36627 16.5558 7.68508C18.2004 7.0039 20.01 6.82567 21.7558 7.17293C23.5016 7.5202 25.1053 8.37737 26.364 9.63604C27.6226 10.8947 28.4798 12.4984 28.8271 14.2442C29.1743 15.99 28.9961 17.7996 28.3149 19.4442C27.6337 21.0887 26.4802 22.4943 25.0001 23.4832C23.5201 24.4722 21.78 25 20 25Z" fill="#F2F2F2"/>
</svg>
