<svg width="32" height="32" viewBox="0 0 32 32" fill="none" xmlns="http://www.w3.org/2000/svg">
<path d="M31 16.0002C31.0063 18.3816 30.2337 20.6998 28.8 22.6014C28.7211 22.7065 28.6222 22.7949 28.509 22.8618C28.3959 22.9286 28.2707 22.9725 28.1405 22.991C28.0104 23.0094 27.8779 23.0021 27.7507 22.9694C27.6234 22.9366 27.5038 22.8791 27.3988 22.8002C27.2937 22.7212 27.2052 22.6223 27.1384 22.5092C27.0715 22.396 27.0276 22.2708 27.0092 22.1407C26.9907 22.0106 26.9981 21.8781 27.0308 21.7508C27.0636 21.6235 27.1211 21.504 27.2 21.3989C28.3735 19.8442 29.0057 17.948 29 16.0002C29 13.6132 28.0518 11.324 26.364 9.6362C24.6761 7.94837 22.387 7.00016 20 7.00016C17.6131 7.00016 15.3239 7.94837 13.636 9.6362C11.9482 11.324 11 13.6132 11 16.0002C11 16.2654 10.8946 16.5197 10.7071 16.7073C10.5196 16.8948 10.2652 17.0002 10 17.0002C9.73479 17.0002 9.48044 16.8948 9.2929 16.7073C9.10536 16.5197 9.00001 16.2654 9.00001 16.0002C8.99952 14.991 9.1379 13.9866 9.41126 13.0152C9.27501 13.0002 9.13751 13.0002 9.00001 13.0002C7.40871 13.0002 5.88258 13.6323 4.75737 14.7575C3.63215 15.8827 3.00001 17.4089 3.00001 19.0002C3.00001 20.5915 3.63215 22.1176 4.75737 23.2428C5.88258 24.368 7.40871 25.0002 9.00001 25.0002H12C12.2652 25.0002 12.5196 25.1055 12.7071 25.2931C12.8946 25.4806 13 25.7349 13 26.0002C13 26.2654 12.8946 26.5197 12.7071 26.7073C12.5196 26.8948 12.2652 27.0002 12 27.0002H9.00001C7.90023 27.0004 6.8122 26.7739 5.8039 26.3348C4.79559 25.8957 3.88865 25.2533 3.13972 24.448C2.3908 23.6426 1.81598 22.6914 1.45115 21.6539C1.08633 20.6164 0.939347 19.5148 1.01938 18.418C1.09941 17.3211 1.40475 16.2525 1.91631 15.279C2.42787 14.3054 3.13467 13.4478 3.99257 12.7596C4.85047 12.0715 5.84104 11.5677 6.90241 11.2795C7.96378 10.9914 9.07316 10.9253 10.1613 11.0852C11.2693 8.8691 13.0929 7.092 15.3369 6.0417C17.5809 4.99139 20.1137 4.7294 22.5252 5.29816C24.9366 5.86692 27.0854 7.23312 28.6236 9.17547C30.1617 11.1178 30.9991 13.5225 31 16.0002ZM19.7075 15.2927C19.6146 15.1997 19.5043 15.1259 19.3829 15.0756C19.2615 15.0253 19.1314 14.9994 19 14.9994C18.8686 14.9994 18.7385 15.0253 18.6171 15.0756C18.4957 15.1259 18.3854 15.1997 18.2925 15.2927L14.2925 19.2927C14.1996 19.3856 14.1259 19.4959 14.0756 19.6173C14.0253 19.7387 13.9995 19.8688 13.9995 20.0002C13.9995 20.1316 14.0253 20.2617 14.0756 20.3831C14.1259 20.5044 14.1996 20.6147 14.2925 20.7077C14.4801 20.8953 14.7346 21.0007 15 21.0007C15.1314 21.0007 15.2615 20.9748 15.3829 20.9246C15.5043 20.8743 15.6146 20.8006 15.7075 20.7077L18 18.4139V26.0002C18 26.2654 18.1054 26.5197 18.2929 26.7073C18.4804 26.8948 18.7348 27.0002 19 27.0002C19.2652 27.0002 19.5196 26.8948 19.7071 26.7073C19.8947 26.5197 20 26.2654 20 26.0002V18.4139L22.2925 20.7077C22.3854 20.8006 22.4957 20.8743 22.6171 20.9246C22.7385 20.9748 22.8686 21.0007 23 21.0007C23.1314 21.0007 23.2615 20.9748 23.3829 20.9246C23.5043 20.8743 23.6146 20.8006 23.7075 20.7077C23.8004 20.6147 23.8741 20.5044 23.9244 20.3831C23.9747 20.2617 24.0006 20.1316 24.0006 20.0002C24.0006 19.8688 23.9747 19.7387 23.9244 19.6173C23.8741 19.4959 23.8004 19.3856 23.7075 19.2927L19.7075 15.2927Z" fill="#F2F2F2"/>
</svg>
