<svg width="529" height="452" viewBox="0 0 529 452" fill="none" xmlns="http://www.w3.org/2000/svg">
<path d="M160 40C143.657 40.0125 127.639 44.5714 113.739 53.1666C99.8387 61.7618 88.6035 74.0546 81.29 88.67C72.5896 87.4011 63.721 87.9385 55.2375 90.2488C46.754 92.559 38.8375 96.5925 31.9818 102.098C25.1262 107.603 19.4783 114.462 15.3907 122.246C11.303 130.031 8.86321 138.574 8.22341 147.343C7.58361 156.112 8.75756 164.919 11.672 173.214C14.5865 181.51 19.179 189.116 25.163 195.558C31.147 201.999 38.3942 207.139 46.4526 210.656C54.5109 214.174 63.2075 215.993 72 216H160C183.339 216 205.722 206.729 222.225 190.225C238.729 173.722 248 151.339 248 128C248 104.661 238.729 82.2778 222.225 65.7746C205.722 49.2714 183.339 40 160 40ZM160 200H72C59.2696 200 47.0606 194.943 38.0589 185.941C29.0571 176.939 24 164.73 24 152C24 139.27 29.0571 127.061 38.0589 118.059C47.0606 109.057 59.2696 104 72 104C73.1 104 74.2 104 75.29 104.11C73.1022 111.885 71.9952 119.923 72 128C72 130.122 72.8428 132.157 74.3431 133.657C75.8434 135.157 77.8783 136 80 136C82.1217 136 84.1566 135.157 85.6568 133.657C87.1571 132.157 88 130.122 88 128C88 113.76 92.2227 99.8393 100.134 87.9989C108.046 76.1586 119.291 66.9302 132.447 61.4807C145.603 56.0312 160.08 54.6053 174.047 57.3835C188.013 60.1616 200.842 67.0189 210.912 77.0883C220.981 87.1577 227.838 99.9869 230.617 113.953C233.395 127.92 231.969 142.397 226.519 155.553C221.07 168.709 211.841 179.954 200.001 187.866C188.161 195.777 174.24 200 160 200Z" fill="#232F3E"/>
<path d="M376 216C376.05 235.052 369.869 253.597 358.4 268.81C357.768 269.65 356.977 270.358 356.072 270.893C355.167 271.428 354.165 271.779 353.124 271.926C352.083 272.074 351.024 272.015 350.005 271.753C348.987 271.491 348.03 271.031 347.19 270.4C346.35 269.768 345.642 268.977 345.107 268.072C344.572 267.167 344.221 266.165 344.073 265.124C343.926 264.083 343.985 263.023 344.246 262.005C344.508 260.987 344.968 260.03 345.6 259.19C354.988 246.752 360.046 231.583 360 216C360 196.904 352.414 178.591 338.912 165.088C325.409 151.585 307.096 144 288 144C268.904 144 250.591 151.585 237.088 165.088C223.586 178.591 216 196.904 216 216C216 218.122 215.157 220.156 213.657 221.657C212.157 223.157 210.122 224 208 224C205.878 224 203.843 223.157 202.343 221.657C200.843 220.156 200 218.122 200 216C199.996 207.927 201.103 199.891 203.29 192.12C202.2 192 201.1 192 200 192C187.27 192 175.061 197.057 166.059 206.059C157.057 215.06 152 227.269 152 240C152 252.73 157.057 264.939 166.059 273.941C175.061 282.943 187.27 288 200 288H224C226.122 288 228.157 288.843 229.657 290.343C231.157 291.843 232 293.878 232 296C232 298.122 231.157 300.156 229.657 301.657C228.157 303.157 226.122 304 224 304H200C191.202 304.002 182.498 302.19 174.431 298.677C166.365 295.164 159.109 290.025 153.118 283.582C147.126 277.139 142.528 269.53 139.609 261.23C136.691 252.93 135.515 244.117 136.155 235.342C136.795 226.567 139.238 218.019 143.33 210.23C147.423 202.442 153.077 195.581 159.941 190.076C166.804 184.571 174.728 180.54 183.219 178.235C191.71 175.93 200.585 175.401 209.29 176.68C218.154 158.951 232.743 144.735 250.695 136.332C268.647 127.93 288.91 125.834 308.201 130.384C327.493 134.934 344.683 145.864 356.988 161.402C369.293 176.941 375.992 196.179 376 216ZM306.34 258.34L288 276.69V216C288 213.878 287.157 211.843 285.657 210.343C284.157 208.843 282.122 208 280 208C277.878 208 275.843 208.843 274.343 210.343C272.843 211.843 272 213.878 272 216V276.69L253.66 258.34C252.159 256.839 250.123 255.995 248 255.995C245.877 255.995 243.841 256.839 242.34 258.34C240.839 259.841 239.996 261.877 239.996 264C239.996 266.123 240.839 268.159 242.34 269.66L274.34 301.66C275.083 302.404 275.965 302.994 276.936 303.396C277.908 303.799 278.949 304.006 280 304.006C281.051 304.006 282.092 303.799 283.064 303.396C284.035 302.994 284.917 302.404 285.66 301.66L317.66 269.66C319.161 268.159 320.004 266.123 320.004 264C320.004 261.877 319.161 259.841 317.66 258.34C316.159 256.839 314.123 255.995 312 255.995C309.877 255.995 307.841 256.839 306.34 258.34Z" fill="#232F3E"/>
<path d="M521 324C521.05 343.052 514.869 361.597 503.4 376.81C502.768 377.65 501.977 378.358 501.072 378.893C500.167 379.428 499.165 379.779 498.124 379.926C497.083 380.074 496.024 380.015 495.005 379.753C493.987 379.491 493.03 379.031 492.19 378.4C491.35 377.768 490.642 376.977 490.107 376.072C489.572 375.167 489.221 374.165 489.073 373.124C488.926 372.083 488.985 371.023 489.246 370.005C489.508 368.987 489.968 368.03 490.6 367.19C499.988 354.752 505.046 339.583 505 324C505 304.904 497.414 286.591 483.912 273.088C470.409 259.585 452.096 252 433 252C413.904 252 395.591 259.585 382.088 273.088C368.586 286.591 361 304.904 361 324C361 326.122 360.157 328.156 358.657 329.657C357.157 331.157 355.122 332 353 332C350.878 332 348.843 331.157 347.343 329.657C345.843 328.156 345 326.122 345 324C344.996 315.927 346.103 307.891 348.29 300.12C347.2 300 346.1 300 345 300C332.27 300 320.061 305.057 311.059 314.059C302.057 323.06 297 335.269 297 348C297 360.73 302.057 372.939 311.059 381.941C320.061 390.943 332.27 396 345 396H369C371.122 396 373.157 396.843 374.657 398.343C376.157 399.843 377 401.878 377 404C377 406.122 376.157 408.156 374.657 409.657C373.157 411.157 371.122 412 369 412H345C336.202 412.002 327.498 410.19 319.431 406.677C311.365 403.164 304.109 398.025 298.118 391.582C292.126 385.139 287.528 377.53 284.609 369.23C281.691 360.93 280.515 352.117 281.155 343.342C281.795 334.567 284.238 326.019 288.33 318.23C292.423 310.442 298.077 303.581 304.941 298.076C311.804 292.571 319.728 288.54 328.219 286.235C336.71 283.93 345.585 283.401 354.29 284.68C363.154 266.951 377.743 252.735 395.695 244.332C413.647 235.93 433.91 233.834 453.201 238.384C472.493 242.934 489.683 253.864 501.988 269.402C514.293 284.941 520.992 304.179 521 324ZM430.66 318.34C429.917 317.596 429.035 317.006 428.064 316.603C427.092 316.201 426.051 315.993 425 315.993C423.949 315.993 422.908 316.201 421.936 316.603C420.965 317.006 420.083 317.596 419.34 318.34L387.34 350.34C386.597 351.083 386.007 351.965 385.605 352.937C385.203 353.908 384.996 354.949 384.996 356C384.996 357.051 385.203 358.092 385.605 359.063C386.007 360.034 386.597 360.917 387.34 361.66C388.841 363.161 390.877 364.004 393 364.004C394.051 364.004 395.092 363.797 396.063 363.395C397.034 362.993 397.917 362.403 398.66 361.66L417 343.31V404C417 406.122 417.843 408.156 419.343 409.657C420.843 411.157 422.878 412 425 412C427.122 412 429.157 411.157 430.657 409.657C432.157 408.156 433 406.122 433 404V343.31L451.34 361.66C452.083 362.403 452.966 362.993 453.937 363.395C454.908 363.797 455.949 364.004 457 364.004C458.051 364.004 459.092 363.797 460.063 363.395C461.034 362.993 461.917 362.403 462.66 361.66C463.403 360.917 463.993 360.034 464.395 359.063C464.797 358.092 465.004 357.051 465.004 356C465.004 354.949 464.797 353.908 464.395 352.937C463.993 351.965 463.403 351.083 462.66 350.34L430.66 318.34Z" fill="#232F3E"/>
</svg>
