<svg width="32" height="32" viewBox="0 0 32 32" fill="none" xmlns="http://www.w3.org/2000/svg">
<path d="M31 16C31.0001 17.3846 30.5896 18.738 29.8204 19.8893C29.0513 21.0405 27.958 21.9378 26.6788 22.4677C25.3997 22.9975 23.9921 23.1361 22.6342 22.866C21.2763 22.5959 20.029 21.9291 19.05 20.95L19.0087 20.9063L11.515 12.4438C10.8134 11.7504 9.92241 11.28 8.95412 11.0918C7.98583 10.9037 6.98351 11.0061 6.07331 11.3863C5.1631 11.7664 4.38568 12.4073 3.83887 13.2283C3.29205 14.0492 3.00029 15.0136 3.00029 16C3.00029 16.9864 3.29205 17.9508 3.83887 18.7718C4.38568 19.5927 5.1631 20.2336 6.07331 20.6138C6.98351 20.9939 7.98583 21.0964 8.95412 20.9082C9.92241 20.72 10.8134 20.2497 11.515 19.5563L12.58 18.3538C12.6671 18.2553 12.7727 18.1749 12.8908 18.1172C13.009 18.0596 13.1373 18.0257 13.2686 18.0177C13.3998 18.0096 13.5313 18.0275 13.6556 18.0702C13.7799 18.113 13.8946 18.1798 13.9931 18.2669C14.0916 18.354 14.172 18.4596 14.2296 18.5778C14.2873 18.6959 14.3211 18.8242 14.3292 18.9555C14.3373 19.0867 14.3194 19.2182 14.2767 19.3425C14.2339 19.4668 14.1671 19.5815 14.08 19.68L12.9937 20.9063L12.9525 20.95C11.9735 21.9289 10.7262 22.5955 9.36836 22.8656C8.01051 23.1356 6.60308 22.9969 5.32404 22.4671C4.045 21.9373 2.95179 21.0401 2.18265 19.8889C1.41352 18.7378 1.00299 17.3845 1.00299 16C1.00299 14.6156 1.41352 13.2622 2.18265 12.1111C2.95179 10.96 4.045 10.0628 5.32404 9.53293C6.60308 9.0031 8.01051 8.86443 9.36836 9.13447C10.7262 9.40451 11.9735 10.0711 12.9525 11.05L12.9937 11.0938L20.4875 19.5563C21.1891 20.2497 22.0801 20.72 23.0484 20.9082C24.0166 21.0964 25.019 20.9939 25.9292 20.6138C26.8394 20.2336 27.6168 19.5927 28.1636 18.7718C28.7104 17.9508 29.0022 16.9864 29.0022 16C29.0022 15.0136 28.7104 14.0492 28.1636 13.2283C27.6168 12.4073 26.8394 11.7664 25.9292 11.3863C25.019 11.0061 24.0166 10.9037 23.0484 11.0918C22.0801 11.28 21.1891 11.7504 20.4875 12.4438L19.4225 13.6463C19.2466 13.8452 18.9989 13.9661 18.7339 13.9824C18.4689 13.9987 18.2083 13.909 18.0094 13.7331C17.8104 13.5573 17.6895 13.3096 17.6733 13.0446C17.657 12.7796 17.7466 12.5189 17.9225 12.32L19.0087 11.0938L19.05 11.05C20.029 10.071 21.2763 9.40418 22.6342 9.13405C23.9921 8.86391 25.3997 9.00253 26.6788 9.53239C27.958 10.0622 29.0513 10.9595 29.8204 12.1108C30.5896 13.262 31.0001 14.6155 31 16Z" fill="#F2F2F2"/>
</svg>
