<svg width="64" height="64" viewBox="0 0 64 64" fill="none" xmlns="http://www.w3.org/2000/svg">
<g clip-path="url(#clip0_67_233)">
<path fill-rule="evenodd" clip-rule="evenodd" d="M64.0073 31.9711C64.0073 49.6095 49.6824 63.9911 31.9945 63.9911C14.3389 63.9911 0.013916 49.6095 0.013916 31.9711C0.013916 14.365 14.3389 -0.0166016 31.9945 -0.0166016C49.6824 0.0156441 64.0073 14.365 64.0073 31.9711Z" fill="#232F3E"/>
<path fill-rule="evenodd" clip-rule="evenodd" d="M57.5399 31.9708C57.5399 36.1627 57.5075 40.2257 57.1195 44.1919C56.8931 46.3846 55.826 46.8683 53.7888 47.0618C46.8689 47.8034 39.1405 47.9647 31.9619 47.9647C24.7832 47.9647 17.0872 47.8357 10.1673 47.0618C8.13009 46.8683 7.09532 46.3846 6.83663 44.1919C6.44859 40.2257 6.41626 36.1305 6.41626 31.9708C6.41626 27.8434 6.44859 23.7481 6.83663 19.7819C7.06298 17.5892 8.13009 17.1055 10.1673 16.9121C17.0872 16.1704 24.8156 15.9769 31.9619 16.0092C39.1729 15.9769 46.8689 16.1382 53.7888 16.9121C55.826 17.1055 56.8608 17.5892 57.1195 19.7819C57.5075 23.7481 57.5399 27.8434 57.5399 31.9708Z" fill="#F2F2F2"/>
<path fill-rule="evenodd" clip-rule="evenodd" d="M18.9951 31.9711C18.9951 24.8448 24.7833 19.0405 31.9943 19.0405C39.2376 19.0405 45.0258 24.877 45.0258 31.9711C45.0258 39.1296 39.2376 44.9016 31.9943 44.9016C24.7833 44.9338 18.9951 39.1296 18.9951 31.9711Z" fill="#232F3E"/>
</g>
<defs>
<clipPath id="clip0_67_233">
<rect width="64" height="64" fill="white"/>
</clipPath>
</defs>
</svg>
