<svg width="32" height="32" viewBox="0 0 32 32" fill="none" xmlns="http://www.w3.org/2000/svg">
<path d="M20.0001 5C17.9572 5.00157 15.955 5.57142 14.2175 6.64582C12.48 7.72023 11.0756 9.25682 10.1614 11.0837C9.07382 10.9251 7.96525 10.9923 6.90481 11.2811C5.84437 11.5699 4.85481 12.0741 3.99785 12.7622C3.14089 13.4504 2.43491 14.3077 1.92395 15.2808C1.413 16.2538 1.10802 17.3217 1.02804 18.4179C0.94807 19.514 1.09481 20.6149 1.45912 21.6518C1.82343 22.6887 2.39749 23.6395 3.14549 24.4447C3.8935 25.2499 4.7994 25.8924 5.80669 26.3321C6.81398 26.7717 7.90106 26.9991 9.00012 27H20.0001C22.9175 27 25.7154 25.8411 27.7783 23.7782C29.8412 21.7153 31.0001 18.9174 31.0001 16C31.0001 13.0826 29.8412 10.2847 27.7783 8.22183C25.7154 6.15893 22.9175 5 20.0001 5ZM20.0001 25H9.00012C7.40882 25 5.8827 24.3679 4.75748 23.2426C3.63226 22.1174 3.00012 20.5913 3.00012 19C3.00012 17.4087 3.63226 15.8826 4.75748 14.7574C5.8827 13.6321 7.40882 13 9.00012 13C9.13762 13 9.27512 13 9.41137 13.0138C9.1379 13.9856 8.99951 14.9904 9.00012 16C9.00012 16.2652 9.10547 16.5196 9.29301 16.7071C9.48055 16.8946 9.7349 17 10.0001 17C10.2653 17 10.5197 16.8946 10.7072 16.7071C10.8948 16.5196 11.0001 16.2652 11.0001 16C11.0001 14.22 11.528 12.4799 12.5169 10.9999C13.5058 9.51982 14.9114 8.36627 16.556 7.68508C18.2005 7.0039 20.0101 6.82567 21.7559 7.17293C23.5018 7.5202 25.1054 8.37737 26.3641 9.63604C27.6228 10.8947 28.4799 12.4984 28.8272 14.2442C29.1745 15.99 28.9962 17.7996 28.315 19.4442C27.6338 21.0887 26.4803 22.4943 25.0002 23.4832C23.5202 24.4722 21.7801 25 20.0001 25Z" fill="#232F3E"/>
</svg>
