<svg width="32" height="32" viewBox="0 0 32 32" fill="none" xmlns="http://www.w3.org/2000/svg">
<path d="M17 12.5C17 12.7967 16.912 13.0867 16.7472 13.3334C16.5824 13.58 16.3481 13.7723 16.074 13.8858C15.7999 13.9994 15.4983 14.0291 15.2074 13.9712C14.9164 13.9133 14.6491 13.7704 14.4393 13.5607C14.2296 13.3509 14.0867 13.0836 14.0288 12.7926C13.9709 12.5017 14.0007 12.2001 14.1142 11.926C14.2277 11.6519 14.42 11.4176 14.6666 11.2528C14.9133 11.088 15.2033 11 15.5 11C15.8978 11 16.2794 11.158 16.5607 11.4393C16.842 11.7206 17 12.1022 17 12.5ZM29 16.185C28.9437 19.5528 27.586 22.7682 25.2115 25.1572C22.837 27.5461 19.6299 28.9233 16.2625 29H15.9913C12.8032 29.0224 9.71953 27.8648 7.33375 25.75C7.13484 25.5731 7.01433 25.3245 6.99874 25.0588C6.99103 24.9272 7.0093 24.7954 7.05251 24.6709C7.09573 24.5464 7.16305 24.4316 7.25063 24.3331C7.3382 24.2346 7.44432 24.1544 7.56292 24.0969C7.68152 24.0394 7.81028 24.0058 7.94185 23.9981C8.20756 23.9825 8.46859 24.0731 8.6675 24.25C9.42092 24.9242 10.267 25.487 11.18 25.9212L14.5 21.355C11.6525 20.1262 8.56625 20.6488 6.825 20.9438C6.08805 21.071 5.33014 20.9881 4.63816 20.7044C3.94617 20.4208 3.3481 19.9479 2.9125 19.34L2.875 19.2862L1.1525 16.5362C1.08265 16.4244 1.0356 16.2999 1.01407 16.1698C0.992533 16.0397 0.996938 15.9066 1.02703 15.7783C1.05712 15.6499 1.1123 15.5287 1.18939 15.4218C1.26649 15.3148 1.36398 15.2241 1.47625 15.155L14 7.44125V4C14 3.73478 14.1054 3.48043 14.2929 3.29289C14.4804 3.10536 14.7348 3 15 3H16C17.7229 2.99983 19.4286 3.34211 21.018 4.00696C22.6074 4.67181 24.0488 5.64596 25.2584 6.87278C26.468 8.09961 27.4217 9.55463 28.064 11.1533C28.7064 12.7519 29.0245 14.4623 29 16.185ZM27 16.1575C27.0209 14.6998 26.7518 13.2524 26.2083 11.8996C25.6649 10.5468 24.8579 9.31549 23.8344 8.27731C22.8109 7.23912 21.5912 6.41476 20.2462 5.85213C18.9013 5.28951 17.4579 4.99985 16 5V8C15.9999 8.17075 15.9561 8.33862 15.8727 8.48763C15.7893 8.63664 15.6692 8.76182 15.5238 8.85125L3.3825 16.3237L4.5525 18.1987C4.77317 18.4959 5.07233 18.7256 5.41636 18.862C5.76039 18.9985 6.13566 19.0363 6.5 18.9713C8.5 18.6338 12.5963 17.9412 16.2588 19.9937C17.5378 19.9256 18.7421 19.37 19.624 18.4412C20.5059 17.5123 20.9983 16.2808 21 15C21 14.7348 21.1054 14.4804 21.2929 14.2929C21.4804 14.1054 21.7348 14 22 14C22.2652 14 22.5196 14.1054 22.7071 14.2929C22.8946 14.4804 23 14.7348 23 15C22.9976 16.7648 22.3295 18.4637 21.1292 19.7574C19.9288 21.0511 18.2847 21.8444 16.525 21.9788L13.1363 26.6388C14.1436 26.8999 15.1821 27.0215 16.2225 27C19.0712 26.9336 21.7838 25.768 23.7926 23.7471C25.8014 21.7261 26.9507 19.0065 27 16.1575Z" fill="#F2F2F2"/>
</svg>
