<svg width="80" height="26" viewBox="0 0 80 26" fill="none" xmlns="http://www.w3.org/2000/svg">
<g clip-path="url(#clip0_67_157)">
<path d="M29.2364 16.3096C29.3455 17.0912 29.5587 17.6777 29.8757 18.0684C30.4574 18.7715 31.4531 19.1227 32.863 19.1225C33.7085 19.1225 34.3946 19.0292 34.9215 18.8434C35.9212 18.4865 36.4208 17.8236 36.4208 16.8547C36.4208 16.2884 36.1749 15.8506 35.683 15.5413C35.1911 15.2319 34.4142 14.9645 33.3525 14.7389L31.5359 14.3309C29.7504 13.9278 28.5234 13.4898 27.8549 13.0174C26.7242 12.2268 26.1588 10.9902 26.1588 9.30748C26.1588 7.77277 26.7121 6.49741 27.8181 5.48093C28.9243 4.46469 30.5497 3.95692 32.6941 3.95811C34.4844 3.95811 36.0117 4.43661 37.2758 5.39384C38.5399 6.35108 39.2026 7.74065 39.2639 9.56303H35.8969C35.8346 8.53275 35.3833 7.80013 34.5427 7.36565C33.9832 7.0787 33.2868 6.93498 32.4539 6.93498C31.5277 6.93498 30.7881 7.12153 30.2356 7.4939C29.683 7.86628 29.4069 8.3857 29.4069 9.05193C29.4069 9.66629 29.6802 10.1236 30.2267 10.4241C30.5763 10.6252 31.3196 10.8615 32.4564 11.1334L35.4017 11.8423C36.6922 12.1528 37.6597 12.5675 38.3046 13.0869C39.3047 13.894 39.8048 15.0604 39.8048 16.5868C39.8048 18.1531 39.2121 19.454 38.0268 20.4895C36.8413 21.5245 35.1669 22.042 33.0032 22.0416C30.7937 22.0416 29.0561 21.5316 27.7903 20.5121C26.5245 19.4923 25.8908 18.0915 25.8892 16.3093H29.2364V16.3096ZM48.5036 15.4359C48.3044 15.5634 48.0935 15.6705 47.8738 15.7557C47.5902 15.8564 47.2987 15.9324 47.0024 15.9827L46.2647 16.1218C45.5727 16.2465 45.0752 16.3964 44.7734 16.5758C44.2619 16.8785 44.0065 17.3472 44.007 17.9821C44.007 18.5484 44.163 18.9576 44.4751 19.2094C44.8004 19.4658 45.2028 19.5993 45.6138 19.5872C46.3152 19.5901 47.0001 19.3706 47.5739 18.959C48.1707 18.5403 48.4807 17.7767 48.5043 16.6689L48.5036 15.4359ZM46.5187 13.8893C47.1228 13.8119 47.5548 13.7148 47.8148 13.599C48.281 13.3972 48.5145 13.0831 48.515 12.6565C48.515 12.1371 48.3359 11.7785 47.9781 11.581C47.6201 11.3833 47.096 11.284 46.4056 11.2836C45.6285 11.2836 45.0783 11.4775 44.7548 11.8656C44.5234 12.1521 44.3697 12.5394 44.2932 13.0274H41.1592C41.228 11.9196 41.5331 11.0088 42.0739 10.2949C42.9353 9.17804 44.4145 8.61983 46.5115 8.61983C47.8778 8.61983 49.0899 8.89513 50.1479 9.44549C51.2061 9.99632 51.7348 11.0356 51.7341 12.5635V18.3773C51.7341 18.7811 51.7409 19.2696 51.7563 19.8432C51.7794 20.2772 51.8437 20.5713 51.9499 20.726C52.0728 20.8956 52.2381 21.0284 52.4285 21.1107V21.599H48.9019C48.8099 21.3664 48.7412 21.1248 48.6969 20.878C48.6556 20.6236 48.6252 20.3675 48.6059 20.1104C48.1519 20.6102 47.6269 21.0374 47.0484 21.3779C46.3218 21.7949 45.4997 22.0076 44.6661 21.9942C43.5359 21.9942 42.6024 21.6666 41.8659 21.011C41.1291 20.3555 40.7608 19.4273 40.7608 18.2267C40.7608 16.6686 41.3535 15.5403 42.5388 14.8424C43.1886 14.4627 44.1451 14.1914 45.408 14.0282L46.5187 13.8893ZM59.2385 4.30075C59.4024 4.31264 59.6327 4.33001 59.9214 4.35357V7.05181C59.7392 7.02802 59.4344 7.01065 59.0048 6.99875C58.5752 6.98709 58.2801 7.0825 58.1168 7.28951C57.9588 7.47988 57.8718 7.72105 57.871 7.9705V9.03932H60.0023V11.3773H57.871V21.5968H54.6493V11.3771H52.8278V9.03908H54.6034V8.22581C54.6034 6.86979 54.8275 5.93563 55.2756 5.42287C55.7462 4.66337 56.8809 4.28385 58.6801 4.28385C58.8844 4.28385 59.0703 4.28933 59.2376 4.30051M67.7329 8.62697C67.7747 8.63126 67.8673 8.63697 68.0117 8.64458V12.0371C67.7019 12.001 67.3905 11.9817 67.0787 11.9793C65.7731 11.9793 64.8963 12.4136 64.4481 13.2818C64.1978 13.7705 64.0725 14.5226 64.0725 15.5387V21.5966H60.8049V8.92368H63.902V11.1334C64.4033 10.2887 64.8406 9.71079 65.2138 9.40052C65.8209 8.88109 66.6104 8.6215 67.582 8.6215C67.6427 8.6215 67.6935 8.6215 67.7353 8.62721M76.0725 15.4356C75.8734 15.5634 75.6625 15.6705 75.4428 15.7557C75.1592 15.8564 74.8677 15.9324 74.5714 15.9827L73.8337 16.1218C73.1417 16.2465 72.6442 16.3964 72.3424 16.5758C71.8293 16.8785 71.5727 17.3482 71.5727 17.9847C71.5727 18.551 71.7287 18.9602 72.0408 19.212C72.3661 19.4686 72.7685 19.6021 73.1795 19.5898C73.8806 19.5927 74.5651 19.3733 75.1387 18.9617C75.736 18.5426 76.0464 17.7791 76.07 16.6712L76.0725 15.4356ZM74.0877 13.8895C74.6918 13.8119 75.1237 13.7148 75.3838 13.5987C75.8489 13.3955 76.0814 13.0814 76.0814 12.6565C76.0814 12.1371 75.9025 11.7785 75.5445 11.581C75.1865 11.3833 74.6622 11.284 73.9713 11.2836C73.1949 11.2836 72.6447 11.4775 72.3212 11.8656C72.09 12.1521 71.9361 12.5394 71.8596 13.0274H68.7282C68.797 11.9196 69.102 11.0088 69.6429 10.2949C70.5043 9.17804 71.9834 8.61983 74.0805 8.61983C75.4468 8.61983 76.6589 8.89513 77.7169 9.44549C78.775 9.99632 79.3045 11.0349 79.3057 12.5618V18.3759C79.3057 18.7796 79.3134 19.2681 79.3285 19.8418C79.3516 20.2758 79.416 20.5699 79.5221 20.7246C79.6449 20.894 79.8099 21.0269 80 21.1095V21.5978H76.4749C76.3829 21.3651 76.3142 21.1234 76.2701 20.8766C76.2284 20.6223 76.1981 20.3663 76.1791 20.1092C75.7249 20.6088 75.1998 21.036 74.6213 21.3768C73.8948 21.7937 73.0728 22.0064 72.2393 21.993C71.109 21.993 70.1756 21.6654 69.4388 21.0098C68.702 20.3541 68.3338 19.4261 68.3338 18.2255C68.3338 16.6674 68.9264 15.5391 70.112 14.8413C70.7617 14.4615 71.718 14.19 72.981 14.027L74.0877 13.8897V13.8895ZM15.3003 18.7539C14.428 18.7539 13.8552 18.2447 13.8552 17.481C13.8552 16.8445 14.279 16.3353 14.7774 16.3353C14.9766 16.3353 15.151 16.4114 15.151 16.6149C15.151 16.7422 15.1011 16.8445 15.2257 16.8445C15.3003 16.8445 15.3756 16.7683 15.3756 16.5637C15.3756 16.3127 15.151 16.1057 14.8273 16.1057H14.752C14.7855 16.0343 14.8028 15.9558 14.8019 15.8763C14.8029 15.8293 14.7947 15.7825 14.7776 15.7389C14.7604 15.6952 14.7348 15.6556 14.7022 15.6223C14.6697 15.589 14.6308 15.5628 14.5881 15.5453C14.5453 15.5278 14.4995 15.5193 14.4534 15.5203C14.279 15.5203 14.1043 15.6226 14.1043 15.7497C14.1022 15.7652 14.1056 15.781 14.1137 15.7943C14.1218 15.8076 14.1342 15.8176 14.1488 15.8225C14.1586 15.8258 14.169 15.8267 14.1791 15.8251C14.2535 15.8251 14.279 15.7497 14.4035 15.7497C14.427 15.7468 14.4509 15.7494 14.4733 15.7573C14.4956 15.7652 14.516 15.7782 14.5327 15.7953C14.5494 15.8124 14.5622 15.8332 14.5699 15.856C14.5776 15.8789 14.5801 15.9032 14.5773 15.9272C14.5773 16.1057 14.428 16.1785 14.3034 16.2579C14.0952 16.3828 13.9231 16.5618 13.8049 16.7766C13.6867 16.9915 13.6265 17.2346 13.6306 17.481C13.6306 18.1936 14.0299 18.6533 14.6027 18.8553L14.229 19.4416C13.7306 19.4416 13.4806 19.8242 13.0323 20.6384C13.0116 20.5341 12.9551 20.4408 12.8729 20.3754C12.7907 20.3099 12.6882 20.2766 12.584 20.2815C12.3093 20.2815 12.1348 20.485 12.1348 20.7657C12.1319 20.7959 12.1407 20.8261 12.1594 20.8498C12.178 20.8734 12.2051 20.8886 12.2346 20.8921C12.2512 20.8932 12.2679 20.8907 12.2835 20.8848C12.299 20.8789 12.3132 20.8696 12.325 20.8577C12.3368 20.8457 12.346 20.8313 12.3519 20.8155C12.3579 20.7996 12.3604 20.7827 12.3594 20.7657C12.3571 20.734 12.3611 20.7021 12.3713 20.672C12.3815 20.6419 12.3976 20.6142 12.4186 20.5907C12.4397 20.5672 12.4652 20.5483 12.4936 20.5352C12.5221 20.5221 12.5528 20.515 12.584 20.5145C12.7585 20.5145 12.8299 20.6418 12.8299 20.794C12.8353 20.9681 12.7824 21.1389 12.6799 21.2782C12.157 22.1434 11.4339 22.5762 10.811 22.5762C10.2619 22.5762 9.93819 22.2455 9.93819 21.9147C9.93819 21.609 10.1127 21.3544 10.4117 21.3544C10.6111 21.3544 10.7356 21.4817 10.7356 21.6592C10.7356 21.8124 10.6111 21.8124 10.6111 21.8888C10.6111 21.9397 10.661 21.9649 10.7111 21.9649C10.8611 21.9649 10.957 21.7874 10.957 21.609C10.957 21.3282 10.7324 21.1248 10.4086 21.1248C10.2773 21.1242 10.1486 21.1624 10.0381 21.2349C9.9276 21.3073 9.84001 21.4108 9.78589 21.5328C9.73138 21.411 9.64363 21.3077 9.53311 21.2353C9.4226 21.1629 9.294 21.1246 9.16268 21.1248C8.83499 21.1248 8.61364 21.3284 8.61364 21.609C8.61364 21.7874 8.71347 21.9649 8.85948 21.9649C8.90845 21.9649 8.9586 21.9397 8.9586 21.8888C8.9586 21.8127 8.83405 21.8127 8.83405 21.6592C8.83405 21.4817 8.9586 21.3544 9.16198 21.3544C9.46029 21.3544 9.63499 21.6056 9.63499 21.9147C9.63499 22.2455 9.31102 22.5762 8.76268 22.5762C8.13994 22.5762 7.41691 22.1432 6.89306 21.2782C6.79301 21.1366 6.74309 20.9644 6.75149 20.79C6.75149 20.6375 6.82612 20.5102 6.99732 20.5102C7.02852 20.5107 7.05928 20.5178 7.08772 20.5309C7.11615 20.544 7.14167 20.5629 7.1627 20.5864C7.18372 20.61 7.19982 20.6376 7.21001 20.6677C7.22019 20.6978 7.22425 20.7297 7.22192 20.7614C7.22094 20.7783 7.22346 20.7951 7.22933 20.8109C7.23519 20.8267 7.24426 20.841 7.25593 20.8529C7.26761 20.8649 7.28163 20.8741 7.29708 20.8801C7.31252 20.8861 7.32904 20.8888 7.34554 20.8878C7.37517 20.8844 7.40231 20.8693 7.42105 20.8456C7.43978 20.8219 7.44861 20.7917 7.4456 20.7614C7.4456 20.4807 7.27114 20.2772 6.99732 20.2772C6.89296 20.272 6.79023 20.3052 6.70779 20.3706C6.62536 20.4361 6.5687 20.5296 6.54811 20.6341C6.10309 19.8235 5.85376 19.4416 5.3579 19.4416L4.98426 18.8553C5.55802 18.6519 5.95638 18.1938 5.95638 17.481C5.96028 17.2346 5.90002 16.9916 5.78176 16.7767C5.66351 16.5618 5.49149 16.3828 5.28327 16.2579C5.15872 16.1818 5.00968 16.1057 5.00968 15.9272C5.00694 15.9032 5.00957 15.8788 5.01738 15.856C5.02519 15.8332 5.03796 15.8124 5.05475 15.7953C5.07154 15.7783 5.0919 15.7653 5.11431 15.7574C5.13672 15.7495 5.1606 15.7468 5.18414 15.7497C5.30892 15.7497 5.33341 15.8251 5.40805 15.8251C5.41816 15.8266 5.42848 15.8258 5.4382 15.8225C5.44792 15.8193 5.45678 15.8138 5.46407 15.8065C5.47137 15.7992 5.47691 15.7903 5.48026 15.7804C5.48361 15.7706 5.48468 15.7601 5.48338 15.7497C5.48338 15.6224 5.30892 15.5203 5.13423 15.5203C5.06469 15.5184 4.99623 15.5382 4.93812 15.5773C4.88001 15.6163 4.83506 15.6726 4.80933 15.7385C4.7923 15.7823 4.78391 15.8289 4.78507 15.8763C4.78414 15.9558 4.8014 16.0343 4.83499 16.1057H4.76035C4.43265 16.1057 4.21224 16.3093 4.21224 16.5639C4.21224 16.7681 4.28688 16.8445 4.36152 16.8445C4.48583 16.8445 4.43592 16.7422 4.43592 16.6149C4.43592 16.4114 4.61038 16.3353 4.8105 16.3353C5.30892 16.3353 5.73248 16.8445 5.73248 17.481C5.73248 18.2447 5.15872 18.7539 4.28665 18.7539C3.26461 18.7539 2.49166 17.9901 2.49166 16.9206C2.49166 15.8761 3.09015 15.1618 3.7628 14.5279L4.33656 13.9675C5.05959 13.2799 5.35813 12.5673 5.35813 11.6769C5.35813 10.7087 4.78437 9.63941 3.58927 9.10499C3.8351 9.02885 3.98764 8.76997 3.98764 8.4685C3.98764 8.26507 3.913 8.13848 3.913 7.98549C3.913 7.6795 4.08746 7.50128 4.33679 7.50128C4.43273 7.49807 4.52599 7.53387 4.59606 7.6008C4.66613 7.66773 4.70727 7.76031 4.71044 7.85819C4.71213 7.89543 4.70619 7.93263 4.69299 7.9674C4.6798 8.00218 4.65964 8.03376 4.63381 8.06014C4.60798 8.08651 4.57703 8.1071 4.54296 8.12059C4.50889 8.13408 4.47243 8.14018 4.43592 8.13848C4.36128 8.13848 4.31137 8.13848 4.31137 8.21462C4.31137 8.29076 4.38671 8.31598 4.48583 8.31598C4.59351 8.31972 4.69876 8.28283 4.78146 8.21238C4.86416 8.14193 4.91851 8.04285 4.93411 7.93409C4.98776 7.96597 5.04793 7.98358 5.1095 7.98525C5.14924 7.9869 5.18889 7.98012 5.22592 7.96532C5.26295 7.95053 5.29657 7.92804 5.32464 7.8993C5.3527 7.87055 5.37461 7.83617 5.38897 7.79833C5.40333 7.7605 5.40982 7.72003 5.40805 7.67949C5.40805 7.62858 5.38332 7.5522 5.30892 7.5522C5.25878 7.5522 5.23429 7.60335 5.23429 7.65356C5.23537 7.67061 5.23289 7.68769 5.22702 7.70369C5.22114 7.71969 5.21201 7.73423 5.20021 7.74636C5.18841 7.75848 5.17423 7.76791 5.15859 7.77402C5.14295 7.78013 5.12622 7.78279 5.1095 7.78181C5.05939 7.77677 5.0117 7.75733 4.97198 7.72574C4.93226 7.69415 4.90215 7.65171 4.88513 7.60335C4.83042 7.50348 4.751 7.41999 4.65478 7.3612C4.55857 7.30242 4.44892 7.2704 4.33679 7.26833C4.18697 7.2657 4.04127 7.31845 3.92659 7.41685C3.81191 7.51526 3.73601 7.65266 3.71289 7.8037C3.54197 7.62642 3.34909 7.47267 3.13913 7.34638C3.33831 7.21789 3.513 7.11677 3.71289 6.9633C4.02824 6.7202 4.32052 6.44743 4.58589 6.14859L5.95638 4.62101C7.15289 3.27189 7.9235 2.94116 8.67359 2.94116C9.32175 2.94116 9.64548 3.27189 9.64548 3.65379C9.64548 3.93432 9.5284 4.14204 9.34134 4.24412C9.22773 4.12336 9.15162 3.97105 9.12257 3.80631C9.09714 3.67972 9.07265 3.67972 9.04723 3.67972C8.99708 3.67972 8.99708 3.72969 8.99708 3.78109C8.99231 3.96718 9.03894 4.15088 9.13166 4.31122C9.10461 4.31122 9.07662 4.31597 9.04956 4.31597C8.80373 4.31597 8.65119 4.18796 8.65119 4.03568C8.65005 4.01213 8.65395 3.98862 8.66261 3.96676C8.67126 3.9449 8.68448 3.92522 8.70134 3.9091C8.75032 3.85794 8.72583 3.83201 8.70134 3.83201C8.60128 3.83201 8.50122 3.9593 8.50122 4.11182C8.50122 4.29028 8.6512 4.54487 9.07499 4.54487C9.15475 4.54487 9.23405 4.53274 9.31032 4.50871C9.45131 4.61523 9.62211 4.67273 9.79755 4.67273C9.97299 4.67273 10.1438 4.61523 10.2848 4.50871C10.3613 4.53274 10.441 4.54487 10.5208 4.54487C10.9439 4.54487 11.0946 4.29361 11.0946 4.11182C11.0946 3.95954 10.9948 3.83201 10.8954 3.83201C10.8709 3.83201 10.8455 3.85818 10.8954 3.9091C10.9118 3.9255 10.9247 3.94524 10.9332 3.96705C10.9417 3.98886 10.9456 4.01224 10.9446 4.03568C10.9446 4.18796 10.7953 4.31621 10.5462 4.31621C10.5176 4.31621 10.4889 4.31621 10.4644 4.31122C10.557 4.15086 10.6036 3.96715 10.5987 3.78109C10.5987 3.72993 10.5987 3.67972 10.5488 3.67972C10.5241 3.67972 10.4987 3.67972 10.4742 3.80607C10.4445 3.97065 10.3684 4.12285 10.2554 4.24412C10.0686 4.1418 9.95032 3.93432 9.95032 3.65379C9.95032 3.27189 10.2743 2.94092 10.9224 2.94092C11.67 2.94092 12.4431 3.27166 13.6397 4.62101L15.0101 6.14859C15.2695 6.45344 15.5624 6.72688 15.8829 6.96353C16.0821 7.11677 16.2568 7.2148 16.4567 7.34614C16.2468 7.47225 16.0539 7.6262 15.8829 7.80346C15.8594 7.65268 15.7834 7.51559 15.6688 7.41732C15.5543 7.31904 15.4089 7.26615 15.2592 7.26833C15.1471 7.2703 15.0374 7.30228 14.9412 7.36108C14.8449 7.41987 14.7655 7.50342 14.7109 7.60335C14.6939 7.65161 14.6638 7.69397 14.6242 7.72555C14.5846 7.75713 14.537 7.77663 14.487 7.78181C14.4703 7.78283 14.4535 7.7802 14.4379 7.7741C14.4223 7.768 14.4081 7.75857 14.3963 7.74643C14.3845 7.7343 14.3754 7.71973 14.3695 7.70372C14.3637 7.6877 14.3613 7.6706 14.3624 7.65356C14.3624 7.60359 14.337 7.5522 14.2878 7.5522C14.2125 7.5522 14.188 7.62834 14.188 7.67949C14.1864 7.72002 14.193 7.76045 14.2075 7.79824C14.2219 7.83603 14.2439 7.87036 14.2719 7.89908C14.3 7.92779 14.3336 7.95027 14.3706 7.9651C14.4076 7.97993 14.4473 7.98679 14.487 7.98525C14.5486 7.98358 14.6087 7.96597 14.6619 7.93409C14.6778 8.04267 14.7322 8.14153 14.8148 8.21193C14.8974 8.28232 15.0024 8.31934 15.11 8.31598C15.2103 8.31598 15.2847 8.291 15.2847 8.21486C15.2847 8.13872 15.2345 8.13872 15.1601 8.13872C15.1229 8.14348 15.0852 8.13948 15.0497 8.12703C15.0143 8.11457 14.9821 8.09401 14.9557 8.0669C14.9292 8.03979 14.9092 8.00686 14.8972 7.97064C14.8852 7.93442 14.8814 7.89587 14.8863 7.85795C14.8898 7.76031 14.9309 7.66802 15.0008 7.60118C15.0706 7.53433 15.1635 7.49834 15.2592 7.50104C15.5093 7.50104 15.6837 7.67949 15.6837 7.98525C15.6837 8.13848 15.6084 8.26507 15.6084 8.4685C15.6084 8.77426 15.7584 9.02885 16.0075 9.10499C14.811 9.63941 14.2379 10.7087 14.2379 11.6771C14.2379 12.5673 14.5371 13.2799 15.2592 13.9675L15.833 14.5279C16.5059 15.1644 17.1041 15.8763 17.1041 16.9206C17.1041 17.9901 16.3312 18.7539 15.3092 18.7539H15.3003ZM9.80128 23.4882C9.65856 23.2047 9.48266 22.9398 9.27743 22.6995C9.5048 22.6098 9.69146 22.4373 9.80128 22.2153C9.91087 22.4371 10.0972 22.6096 10.3242 22.6995C10.1194 22.9399 9.94378 23.2048 9.80128 23.4882ZM10.0529 4.39331C9.97373 4.42974 9.88783 4.44858 9.80093 4.44858C9.71404 4.44858 9.62814 4.42974 9.54892 4.39331C9.6621 4.30402 9.74934 4.185 9.80128 4.04901C9.85297 4.18495 9.93997 4.30398 10.0529 4.39331ZM17.5034 15.8266C17.438 15.8231 17.3728 15.8379 17.315 15.8695C17.2572 15.9011 17.209 15.9482 17.1755 16.0057C16.9763 15.5477 16.7771 15.1146 15.9044 14.2997C16.0175 14.3349 16.1353 14.352 16.2535 14.3509C16.528 14.3509 16.8273 14.2738 17.001 14.0996C17.0237 14.1824 17.073 14.255 17.1409 14.3059C17.2088 14.3568 17.2914 14.383 17.3756 14.3804C17.6492 14.3804 17.7493 14.2019 17.7493 13.9982C17.7493 13.9214 17.7238 13.845 17.6492 13.845C17.4999 13.845 17.6247 14.1508 17.3756 14.1508C17.3505 14.1505 17.3257 14.1449 17.3029 14.1342C17.2801 14.1234 17.2598 14.1079 17.2433 14.0886C17.2268 14.0693 17.2144 14.0466 17.2071 14.0221C17.1999 13.9976 17.1977 13.9718 17.2009 13.9464C17.2009 13.82 17.2756 13.6668 17.2756 13.4883C17.2833 13.3163 17.2331 13.1467 17.1334 13.0078C17.0336 12.8689 16.8903 12.7689 16.7272 12.7245C16.6515 12.7095 16.583 12.6685 16.5332 12.6084C16.4834 12.5482 16.4552 12.4725 16.4534 12.3938C16.4534 12.1901 16.6027 12.1649 16.6992 12.1649C16.796 12.1649 16.8739 12.1901 16.8739 12.114C16.8739 12.0378 16.7993 11.9867 16.65 11.9867C16.4756 11.9867 16.2265 12.114 16.2265 12.3936C16.2248 12.4506 16.235 12.5074 16.2564 12.5601C16.2779 12.6129 16.3102 12.6603 16.351 12.6993C16.2329 12.7201 16.1258 12.7826 16.0483 12.8759C15.9709 12.9691 15.928 13.0872 15.9272 13.2095C15.9272 13.387 15.9762 13.5645 16.1019 13.5645C16.2512 13.5645 16.1264 13.4372 16.1264 13.2337C16.1264 13.0051 16.3256 12.9037 16.5255 12.9037C16.7993 12.9037 17.0484 13.155 17.0484 13.49C17.0484 13.8719 16.7494 14.1265 16.2755 14.1265C16.0871 14.1354 15.8992 14.1006 15.726 14.0246C15.5527 13.9486 15.3987 13.8334 15.2756 13.6877C14.752 13.1014 14.456 12.5932 14.456 11.6776C14.456 10.505 15.2756 9.4876 16.4746 9.15663C16.6046 9.11857 16.7187 9.03822 16.7997 8.92781C16.8807 8.81741 16.924 8.68301 16.9231 8.54512C16.9231 8.29409 16.7739 8.08804 16.5248 8.08804C16.4247 8.08804 16.3501 8.11231 16.3501 8.1894C16.3501 8.26649 16.4247 8.26554 16.4746 8.26554C16.5404 8.2731 16.6006 8.30662 16.6425 8.35891C16.6843 8.4112 16.7044 8.47812 16.6985 8.54536C16.6985 8.6292 16.6731 8.711 16.626 8.77969C16.5789 8.84837 16.5122 8.90063 16.435 8.92939C16.3837 8.94842 16.3292 8.95652 16.2748 8.95319C16.0009 8.95319 15.8265 8.74975 15.8265 8.46922C15.8265 7.9348 16.4501 7.57813 16.9231 7.35019C16.4994 7.1458 16.3494 7.06942 16.0257 6.81482C15.9926 6.7826 15.9666 6.74353 15.9495 6.70024C15.9324 6.65694 15.9246 6.61042 15.9265 6.56379C15.9265 6.4365 16.0012 6.33418 16.101 6.33418C16.1176 6.33325 16.1343 6.33591 16.1498 6.342C16.1654 6.34808 16.1795 6.35745 16.1913 6.36949C16.203 6.38153 16.2122 6.39598 16.2181 6.41187C16.224 6.42776 16.2265 6.44475 16.2255 6.46172C16.2255 6.53786 16.1756 6.53786 16.1756 6.58902C16.1741 6.59937 16.175 6.60993 16.1783 6.61986C16.1815 6.62979 16.1869 6.63882 16.1942 6.64622C16.2014 6.65361 16.2103 6.65918 16.22 6.66247C16.2298 6.66576 16.2401 6.66668 16.2503 6.66516C16.3002 6.66516 16.4247 6.61495 16.4247 6.41389C16.4254 6.37142 16.4174 6.32928 16.401 6.29021C16.3847 6.25114 16.3604 6.21604 16.3299 6.18718C16.2993 6.15832 16.2631 6.13637 16.2237 6.12275C16.1843 6.10913 16.1424 6.10415 16.101 6.10814C16.0464 6.10813 15.9924 6.11953 15.9423 6.14162C15.8922 6.16372 15.847 6.19605 15.8097 6.23662C15.7723 6.2772 15.7434 6.32515 15.7249 6.37753C15.7064 6.42991 15.6985 6.48561 15.7019 6.54119C15.5069 6.37666 15.3236 6.19806 15.1536 6.00678L14.3559 5.11569C14.1313 4.86443 14.2561 4.37808 14.5798 4.37808C14.6109 4.37574 14.6422 4.37991 14.6717 4.39033C14.7011 4.40075 14.7282 4.41721 14.7512 4.43869C14.7742 4.46016 14.7927 4.48621 14.8055 4.51523C14.8183 4.54425 14.8252 4.57563 14.8257 4.60745C14.8257 4.83587 14.601 4.7338 14.601 4.85872C14.6008 4.87188 14.6033 4.88495 14.6084 4.89705C14.6135 4.90914 14.6211 4.91999 14.6306 4.92886C14.6402 4.93774 14.6514 4.94443 14.6637 4.9485C14.676 4.95257 14.689 4.95392 14.7018 4.95247C14.7745 4.95352 14.8456 4.93115 14.9051 4.88856C14.9645 4.84596 15.0093 4.78531 15.033 4.71524C15.0489 4.66884 15.0549 4.61959 15.051 4.57057C15.0441 4.44931 14.9904 4.33576 14.9017 4.25478C14.813 4.1738 14.6964 4.13198 14.5775 4.13847C14.2493 4.13847 14.0299 4.38974 14.0299 4.74998L13.7798 4.46921C12.6831 3.24715 11.7864 2.71036 10.911 2.71036C10.6288 2.70559 10.3515 2.78543 10.1134 2.93997C9.995 2.79523 9.8869 2.64209 9.78985 2.4817C9.69135 2.6422 9.58176 2.79535 9.46192 2.93997C9.2238 2.78543 8.94644 2.70559 8.66426 2.71036C7.79219 2.71036 6.89469 3.24572 5.79545 4.46921L5.54985 4.74998C5.54985 4.39307 5.32525 4.13847 5.00152 4.13847C4.94258 4.13503 4.88357 4.14349 4.82784 4.16336C4.77212 4.18322 4.72079 4.21411 4.67678 4.25425C4.63278 4.29439 4.59697 4.34299 4.57141 4.39727C4.54584 4.45155 4.53103 4.51044 4.52781 4.57057C4.5241 4.61952 4.53039 4.66872 4.54628 4.71506C4.56218 4.76139 4.58734 4.80386 4.62016 4.83976C4.65298 4.87566 4.69276 4.90422 4.73697 4.92362C4.78117 4.94302 4.82885 4.95284 4.87697 4.95247C4.89035 4.95389 4.90387 4.95225 4.91655 4.94765C4.92923 4.94306 4.94074 4.93563 4.95024 4.92592C4.95974 4.9162 4.967 4.90444 4.97147 4.89149C4.97594 4.87855 4.97752 4.86475 4.97609 4.8511C4.97609 4.7238 4.75219 4.82588 4.75219 4.59984C4.75294 4.55187 4.76811 4.5053 4.79564 4.46641C4.82317 4.42752 4.86173 4.39818 4.90612 4.38236C4.93571 4.37201 4.96707 4.36796 4.99825 4.37046C5.32198 4.37046 5.44653 4.85348 5.22262 5.10808L4.42449 5.99964C4.25446 6.19083 4.07121 6.36935 3.87615 6.53381C3.88095 6.45019 3.86049 6.36707 3.81753 6.29567C3.77457 6.22428 3.71119 6.16804 3.63592 6.13455C3.586 6.1125 3.53218 6.10108 3.47778 6.101C3.43598 6.09617 3.39366 6.10052 3.35364 6.11376C3.31363 6.127 3.27685 6.14882 3.24579 6.17776C3.21473 6.2067 3.19009 6.24209 3.17355 6.28154C3.157 6.321 3.14892 6.36361 3.14985 6.40652C3.14985 6.61114 3.2744 6.65778 3.32455 6.65778C3.3347 6.65935 3.34508 6.65847 3.35484 6.6552C3.3646 6.65193 3.37347 6.64637 3.38073 6.63896C3.38799 6.63155 3.39345 6.6225 3.39665 6.61254C3.39986 6.60259 3.40073 6.592 3.39918 6.58164C3.39918 6.53048 3.34997 6.53048 3.34997 6.45434C3.34895 6.43737 3.35147 6.42038 3.35737 6.40448C3.36326 6.38858 3.3724 6.37414 3.38417 6.36211C3.39594 6.35007 3.41008 6.34073 3.42566 6.33468C3.44123 6.32864 3.45789 6.32604 3.47452 6.32704C3.57434 6.32704 3.64898 6.42936 3.64898 6.55642C3.65084 6.60314 3.64289 6.64972 3.62567 6.69305C3.60846 6.73638 3.58237 6.77547 3.54915 6.80768C3.24991 7.11344 3.07522 7.1427 2.65143 7.34305C3.12536 7.57076 3.7481 7.92909 3.7481 8.46184C3.7481 8.74237 3.57434 8.94581 3.29982 8.94581C3.24533 8.94919 3.19074 8.94115 3.13942 8.92217C3.08809 8.90319 3.04112 8.87368 3.00141 8.83546C2.9617 8.79725 2.93009 8.75113 2.90852 8.69997C2.88696 8.64881 2.8759 8.59368 2.87603 8.53798C2.87063 8.47077 2.89104 8.40404 2.93294 8.35188C2.97485 8.29971 3.03498 8.2662 3.10064 8.2584C3.14985 8.2584 3.22519 8.2584 3.22519 8.18226C3.22519 8.10588 3.14985 8.08066 3.05073 8.08066C2.8049 8.08066 2.65143 8.28434 2.65143 8.53798C2.65102 8.67586 2.69464 8.81012 2.77569 8.92045C2.85674 9.03078 2.97081 9.11118 3.10064 9.14949C4.29668 9.5064 5.11953 10.4986 5.11953 11.6702C5.11953 12.5865 4.7958 13.0698 4.29994 13.6803C4.17773 13.8249 4.02515 13.9395 3.85353 14.0157C3.68191 14.0918 3.49568 14.1275 3.30869 14.1201C2.83522 14.1201 2.53598 13.8688 2.53598 13.4836C2.53598 13.1528 2.78181 12.8973 3.05959 12.8973C3.25878 12.8973 3.45796 12.9986 3.45796 13.2273C3.45796 13.4307 3.33341 13.558 3.48362 13.558C3.60816 13.558 3.65808 13.3805 3.65808 13.203C3.65695 13.0809 3.61395 12.963 3.53654 12.8698C3.45913 12.7767 3.3522 12.7141 3.23429 12.6929C3.27501 12.6538 3.30716 12.6063 3.32863 12.5536C3.3501 12.5009 3.36039 12.4442 3.35883 12.3871C3.35883 12.1076 3.113 11.9803 2.93504 11.9803C2.78507 11.9803 2.71044 12.0312 2.71044 12.1076C2.71044 12.1837 2.78507 12.1585 2.88513 12.1585C2.98519 12.1585 3.13096 12.1837 3.13096 12.3871C3.12881 12.4657 3.10057 12.5412 3.05087 12.6013C3.00117 12.6614 2.93295 12.7025 2.85738 12.7179C2.69391 12.7617 2.55016 12.8615 2.45017 13.0005C2.35019 13.1396 2.30004 13.3094 2.3081 13.4817C2.3081 13.6601 2.38344 13.8169 2.38344 13.9399C2.38652 13.9653 2.38433 13.9911 2.37701 14.0155C2.36968 14.04 2.35739 14.0626 2.34093 14.0819C2.32447 14.1011 2.30421 14.1167 2.28148 14.1274C2.25874 14.1382 2.23404 14.144 2.20898 14.1443C1.96315 14.1443 2.08443 13.8386 1.93446 13.8386C1.85983 13.8386 1.8351 13.9147 1.8351 13.9918C1.8351 14.1955 1.93446 14.3737 2.20898 14.3737C2.29308 14.3765 2.37565 14.3503 2.44342 14.2994C2.51119 14.2486 2.56022 14.1759 2.58262 14.0932C2.75732 14.2707 3.05633 14.3444 3.33015 14.3444C3.4484 14.3455 3.56613 14.3283 3.6793 14.2933C2.80723 15.1082 2.60735 15.5413 2.40816 15.9993C2.37466 15.9418 2.32642 15.8948 2.26863 15.8632C2.21084 15.8316 2.1457 15.8167 2.08023 15.8201C1.8344 15.8201 1.70659 15.9734 1.70659 16.2027C1.70659 16.2532 1.70659 16.4064 1.83114 16.4064C1.93026 16.4064 1.88105 16.3041 1.88105 16.228C1.88135 16.2025 1.88692 16.1774 1.89738 16.1543C1.90784 16.1312 1.92296 16.1106 1.94176 16.0938C1.96056 16.0771 1.98261 16.0645 2.00647 16.0571C2.03033 16.0496 2.05546 16.0473 2.08023 16.0505C2.27942 16.0505 2.32606 16.228 2.27942 16.5085C2.25901 16.6431 2.25081 16.7793 2.25493 16.9154C2.25493 18.1115 3.127 18.9776 4.27359 18.9776C4.44058 18.9728 4.60711 18.9559 4.77201 18.9264L5.12117 19.4618C5.00126 19.4966 4.89543 19.5697 4.81917 19.6703C4.74291 19.7709 4.70023 19.8938 4.69738 20.021C4.69543 20.1374 4.72808 20.2517 4.79102 20.3489C4.85396 20.4461 4.94426 20.5215 5.05003 20.5654C5.12 20.5944 5.19534 20.6087 5.27114 20.6073C5.47102 20.6073 5.62029 20.5049 5.62029 20.4029C5.62155 20.3893 5.61986 20.3755 5.61532 20.3627C5.61078 20.3498 5.60352 20.3382 5.59405 20.3285C5.58458 20.3188 5.57314 20.3114 5.56054 20.3068C5.54794 20.3022 5.5345 20.3005 5.52117 20.3017C5.4456 20.3017 5.4456 20.3779 5.2751 20.3779C5.20551 20.3796 5.13705 20.3596 5.07896 20.3205C5.02087 20.2813 4.97593 20.225 4.9502 20.159C4.93304 20.1151 4.92479 20.0682 4.92595 20.021C4.92595 19.8185 5.10134 19.6652 5.34974 19.6652C5.82344 19.6652 6.04805 20.2254 6.37178 20.7848L6.69971 21.3451C7.22356 22.2612 8.0702 22.7958 8.76851 22.7958C8.8689 22.7999 8.9694 22.7915 9.06775 22.7706C9.36676 23.0764 9.66601 23.6358 9.79079 23.8903C9.9151 23.6391 10.2136 23.0764 10.5136 22.7706C10.6119 22.7915 10.7123 22.7999 10.8126 22.7958C11.51 22.7958 12.3578 22.2614 12.8814 21.3451L13.2051 20.7848C13.5289 20.2256 13.7535 19.665 14.2274 19.665C14.4732 19.665 14.651 19.8185 14.651 20.021C14.6521 20.0681 14.6438 20.115 14.6267 20.1587C14.6095 20.2025 14.5839 20.2423 14.5512 20.2756C14.5186 20.309 14.4797 20.3352 14.4368 20.3528C14.3939 20.3704 14.348 20.3789 14.3018 20.3779C14.1273 20.3779 14.1273 20.3017 14.056 20.3017C14.0426 20.3003 14.029 20.3019 14.0163 20.3065C14.0036 20.311 13.992 20.3184 13.9824 20.3281C13.9729 20.3378 13.9655 20.3495 13.9609 20.3624C13.9563 20.3754 13.9546 20.3892 13.9559 20.4029C13.9559 20.5052 14.1059 20.6075 14.3051 20.6075C14.3809 20.6088 14.4561 20.5945 14.5264 20.5655C14.5967 20.5364 14.6605 20.4932 14.714 20.4385C14.7676 20.3838 14.8098 20.3186 14.8381 20.2468C14.8664 20.1751 14.8803 20.0983 14.8788 20.021C14.8747 19.8949 14.8316 19.7733 14.7557 19.6737C14.6797 19.5741 14.5748 19.5016 14.456 19.4666L14.8044 18.9314C14.9691 18.9609 15.1356 18.9778 15.3026 18.9826C16.4501 18.9826 17.3224 18.1165 17.3224 16.9206C17.3265 16.7845 17.3182 16.6483 17.2977 16.5137C17.2476 16.233 17.2977 16.0555 17.4969 16.0555C17.5217 16.0523 17.5469 16.0545 17.5708 16.0619C17.5946 16.0693 17.6167 16.0819 17.6355 16.0986C17.6544 16.1154 17.6695 16.136 17.6799 16.1592C17.6903 16.1823 17.6959 16.2075 17.6961 16.233C17.6961 16.3091 17.6459 16.4114 17.746 16.4114C17.8706 16.4114 17.8706 16.2582 17.8706 16.208C17.8706 15.9784 17.746 15.8251 17.4969 15.8251L17.5034 15.8266ZM16.8485 20.2047C15.7518 21.3503 14.1313 22.1646 12.5864 22.9291C11.5643 23.4383 10.5677 23.9467 9.79452 24.558C9.02181 23.9465 8.02426 23.4383 7.00292 22.9291C5.45726 22.1646 3.83743 21.3503 2.74099 20.2047C1.34741 18.7542 0.671254 17.2732 0.671254 15.5984C0.671254 14.1748 1.22052 12.9763 2.46624 11.3726C2.56536 11.2441 2.66542 11.117 2.66542 11.0157C2.66542 10.9143 2.56536 10.7099 2.51615 10.6088L1.64338 8.67313C1.4442 8.24103 1.24501 7.83558 1.24501 7.40087C1.24501 7.04396 1.46962 6.78936 1.76793 6.53477L3.01458 5.39027C3.03631 5.3668 3.05036 5.33703 3.05479 5.30506C3.05922 5.27309 3.05381 5.24051 3.0393 5.21182L2.64093 4.37427C2.59079 4.27196 2.59079 4.19486 2.66542 4.14466C3.88665 3.30711 4.90892 3.05013 6.37924 2.64231C7.77259 2.26041 9.02181 1.92944 9.79475 1.42025C10.5677 1.92944 11.8134 2.25779 13.2093 2.64231C14.6796 3.05013 15.6772 3.35494 16.9231 4.14466C16.9978 4.19486 16.9978 4.27196 16.9476 4.37427L16.5493 5.21182C16.5351 5.24067 16.53 5.27325 16.5346 5.30516C16.5392 5.33708 16.5533 5.36679 16.5749 5.39027L17.8164 6.53405C18.1157 6.78532 18.3394 7.04324 18.3394 7.40015C18.3394 7.8332 18.1402 8.2377 17.941 8.67218L17.0706 10.6078C17.0206 10.7089 16.9206 10.9133 16.9206 11.0147C16.9206 11.1161 17.0206 11.2434 17.1198 11.3716C18.4665 12.8992 18.9148 14.1715 18.9148 15.5974C18.9148 17.2725 18.2419 18.7542 16.8459 20.2039L16.8485 20.2047ZM18.0173 11.447C17.7934 11.1663 17.669 11.039 17.669 10.9378C17.669 10.8365 17.7437 10.6866 17.8183 10.5048L18.5656 8.8247C18.7902 8.31551 18.9894 7.88246 18.9894 7.349C18.9894 6.96639 18.8401 6.58426 18.4665 6.25352L17.3943 5.31128C17.3515 5.2749 17.3229 5.22405 17.3137 5.16798C17.3046 5.1119 17.3154 5.05434 17.3444 5.00576L17.7437 4.08946C17.7592 4.05895 17.7626 4.02353 17.7533 3.9905C17.744 3.95748 17.7226 3.92936 17.6935 3.91195C16.4723 3.0744 15.0766 2.56188 13.7551 2.17975C12.4338 1.82379 10.6643 1.3146 9.79242 0.626953C8.91942 1.3146 7.14985 1.79952 5.82857 2.17975C4.50729 2.55998 3.11207 3.07155 1.89411 3.91172C1.86475 3.92882 1.8431 3.95695 1.83378 3.99011C1.82445 4.02327 1.82819 4.05883 1.8442 4.08922L2.24327 5.00624C2.27252 5.05469 2.28368 5.11228 2.27468 5.16844C2.26568 5.2246 2.23714 5.27556 2.19429 5.31199L1.12187 6.25423C0.747988 6.58925 0.598017 6.96686 0.598017 7.34971C0.598017 7.88317 0.797201 8.31599 1.02181 8.82518L1.76933 10.5053C1.84466 10.6837 1.9193 10.836 1.9193 10.9383C1.9193 11.0406 1.79475 11.1667 1.57015 11.4475C0.449213 12.8713 0 14.0439 0 15.5972C0 17.7605 1.04676 19.4147 2.24327 20.6634C3.46449 21.9357 5.15965 22.7756 6.70554 23.5394C7.72758 24.0486 8.79883 24.5578 9.79638 25.3727C10.793 24.5578 11.8652 24.0486 12.8872 23.5394C14.4322 22.7756 16.1525 21.9357 17.3486 20.6634C18.5451 19.4147 19.5918 17.7605 19.5918 15.5974C19.5918 14.0437 19.1436 12.873 18.0215 11.4475" fill="#232F3E"/>
<path d="M11.5177 16.2588C11.3959 16.5512 11.1964 16.8031 10.9418 16.986C10.6874 17.1686 10.388 17.275 10.0774 17.2932C8.91452 17.3912 8.89726 15.9809 8.89726 15.9809V12.5396H8.93154C9.30613 12.4997 9.68474 12.5329 10.0471 12.6376C11.0946 12.9408 11.8447 13.9063 11.8069 15.0177C11.7906 15.4467 11.6923 15.8683 11.5177 16.2588ZM8.89469 7.81029C8.89469 7.81029 9.14052 7.14549 10.0644 7.21663C10.988 7.28801 11.489 8.06156 11.5151 8.82035C11.5412 9.57937 11.739 11.2602 9.84233 11.9343H8.89726L8.89469 7.81029ZM12.3249 14.0598C12.2311 13.6926 12.071 13.3464 11.8528 13.039C11.3609 12.3623 10.7946 12.141 10.7701 12.1327C10.9041 12.0552 11.0327 11.9686 11.1552 11.8734C11.5519 11.5652 11.85 11.144 12.0119 10.663C12.2496 9.97748 12.2805 9.23504 12.1005 8.53149C11.6905 6.96203 10.5948 6.72743 10.5948 6.72743C10.5948 6.72743 9.32012 6.21133 8.44315 7.34631C8.43335 7.3306 7.95708 6.58181 7.1144 6.97465C6.38507 7.38485 6.80466 8.03395 6.98426 8.14698C6.98426 8.14698 7.22262 8.30877 7.35953 8.14698C7.45959 8.02658 7.35953 7.9019 7.30309 7.8179C7.19813 7.65039 7.37189 7.46361 7.61609 7.46789C7.82834 7.46789 8.25213 7.6354 8.25213 8.22169V16.1779C8.25213 16.2441 8.18566 16.6688 7.8358 16.6602C7.48595 16.6519 7.35883 16.2783 7.55872 16.0742C7.54547 16.0411 7.524 16.0122 7.49644 15.9902C7.46029 15.9712 6.92268 15.9559 6.98566 16.5382C7.04886 17.1202 7.73178 17.4014 8.38974 17.0355C8.55046 17.3237 8.78428 17.5626 9.06667 17.7269C9.34905 17.8912 9.66959 17.975 9.99464 17.9694C11.1471 17.9694 11.8699 16.9826 11.8699 16.9826C11.8699 16.9826 12.7946 15.8362 12.3233 14.0707" fill="#232F3E"/>
<path d="M7.48917 15.5287C8.33048 16.1716 9.36514 16.4953 10.4151 16.444C11.1281 16.4146 11.8184 16.1806 12.407 15.769C14.11 14.5548 13.3485 12.9794 13.2986 12.8376C13.2986 12.8376 12.8282 11.743 11.6706 11.3362C11.6706 11.3362 10.8011 11.038 9.42083 10.935C8.04054 10.832 7.49966 10.229 7.71028 9.4895C7.92089 8.74998 8.99541 8.41639 9.66013 8.3738C10.6068 8.31849 11.5453 8.57998 12.333 9.11855C12.4706 9.23086 12.5984 9.35506 12.7151 9.49021C12.7151 9.49021 12.9035 9.74148 13.0232 9.61252C13.1249 9.49949 12.9478 9.34126 12.9478 9.34126C12.7554 9.10393 12.6407 8.81101 12.6199 8.50372C12.6008 8.29379 12.597 8.08272 12.6085 7.87222C12.6169 7.78731 12.6323 7.70326 12.6544 7.62096C12.674 7.54958 12.6903 7.4475 12.5896 7.43013C12.5077 7.41585 12.4676 7.51365 12.4592 7.52888C12.36 7.69957 12.2104 7.83391 12.0319 7.91271C11.8534 7.99151 11.655 8.01073 11.4651 7.96764C10.3496 7.72065 9.66176 7.73231 9.66176 7.73231C9.66176 7.73231 8.36031 7.64023 7.48894 8.5958C7.29633 8.80078 7.1538 9.0492 7.07291 9.32089C6.99203 9.59259 6.97506 9.8799 7.0234 10.1595C7.23098 11.2279 8.31272 11.621 9.42666 11.6091C9.86815 11.6041 10.3086 11.6542 10.7381 11.7583C10.9786 11.8147 11.2144 11.8908 11.443 11.986C11.7347 12.1045 11.9966 12.2884 12.2093 12.5239C12.4221 12.7595 12.5803 13.0407 12.6724 13.347C12.8314 13.914 12.7731 14.6752 11.7618 15.291C9.89453 16.4297 7.64707 15.3745 6.70526 13.13C6.68701 13.0932 6.65525 13.0652 6.61689 13.0522C6.57854 13.0392 6.5367 13.0422 6.50048 13.0605C6.38153 13.1107 6.4473 13.2832 6.4473 13.2832C6.4473 13.2832 6.79716 13.9273 6.72998 14.4348C6.67594 14.7788 6.49794 15.0897 6.23086 15.3067C6.13407 15.3971 6.01535 15.5051 6.10794 15.5991C6.20054 15.6928 6.29803 15.641 6.43564 15.5153H6.44147C6.59548 15.4039 6.78016 15.3451 6.96896 15.3475C7.15776 15.3499 7.34095 15.4133 7.4922 15.5287" fill="#232F3E"/>
<path d="M9.66007 7.85943V17.2328C9.66414 17.5722 9.59185 17.908 9.44876 18.2143C9.29062 18.5417 9.02823 18.8694 8.60934 18.8694C8.60934 18.8694 8.11768 18.9122 7.95861 18.5955C7.76922 18.2236 8.08736 18.0787 8.08736 18.0787C8.08736 18.0787 8.3087 17.9747 8.20281 17.7999C8.09715 17.6247 7.86182 17.7161 7.86182 17.7161C7.73925 17.7662 7.62783 17.841 7.53419 17.9359C7.44054 18.0309 7.36659 18.1441 7.31675 18.2688C7.13645 18.6995 7.43336 19.4181 8.23896 19.4966C8.55553 19.529 8.87486 19.475 9.16421 19.34C9.45357 19.205 9.70254 18.994 9.88561 18.7285C9.88561 18.7285 10.4741 19.4404 11.3289 19.5561C11.3289 19.5561 11.4315 19.5687 11.4609 19.5242C11.4905 19.4799 11.497 19.4069 11.3601 19.3098C11.2232 19.2127 10.4314 18.7471 10.4346 17.9338V7.54868C10.4319 7.26243 10.5001 6.98012 10.6328 6.7279C10.7655 6.47568 10.9585 6.26171 11.1938 6.10581L11.2141 6.0932C11.5318 5.91633 11.8693 5.77908 12.2191 5.68442C12.2191 5.68442 12.4151 5.64921 12.4379 5.55046C12.4608 5.45172 12.4043 5.38961 12.2739 5.40389C12.0223 5.42418 11.7743 5.47768 11.5362 5.56307C11.1847 5.69037 10.76 5.94663 10.0783 5.94735C9.55208 5.94735 8.84864 5.75818 8.55127 5.6711C8.4769 5.64793 8.40406 5.61996 8.33319 5.58734C8.26438 5.55641 8.16922 5.52357 8.10858 5.56474C8.08155 5.5861 8.06287 5.61659 8.05591 5.65074C8.04894 5.68489 8.05414 5.72046 8.07057 5.75104C8.08541 5.77779 8.1082 5.79903 8.13564 5.81172C8.33972 5.9433 8.39616 5.93069 8.58812 6.03205C8.81322 6.14933 9.0143 6.3094 9.18054 6.50365C9.49605 6.88202 9.6662 7.36438 9.65937 7.8611" fill="#232F3E"/>
</g>
<defs>
<clipPath id="clip0_67_157">
<rect width="80" height="24.7458" fill="white" transform="translate(0 0.626953)"/>
</clipPath>
</defs>
</svg>
